<svg viewBox="0 0 1080 1080" xmlns="http://www.w3.org/2000/svg"><g fill="#fff"><path d="m987.62 933.05c-6.92-3.09-13.15-5.76-19.3-8.61-32-14.83-65-26.66-98.8-36.61a526 526 0 0 0 -85.72-18 265.78 265.78 0 0 0 -41-1.7c-18 .65-36.13 1.79-53.91 4.57-21.37 3.35-42.62 7.9-63.56 13.31-21.92 5.66-43.42 13-65.1 19.56-1.24.38-2.42 1-3.64 1.45-13.62 5.19-13.47 4.69-28.56 0-19.82-6.2-39.82-11.83-59.9-17.13q-24.45-6.46-49.26-11.45a436.37 436.37 0 0 0 -44-6.86c-20.12-1.9-40.35-3.47-60.54-3.54-26.29-.08-52.06 4.93-77.63 11a578.77 578.77 0 0 0 -114.38 40.62c-8.53 4-16.88 8.48-25.34 12.69-1.22.61-2.57 1-4.5 1.69 0-2.27 0-3.83 0-5.4q0-337.77-.15-675.55c0-4.18 1.36-5.64 5.25-6.79 12-3.53 23.74-7.83 35.72-11.37 3.84-1.13 4.57-3.06 4.52-6.55-.19-12.23-.06-24.47-.27-36.7-.07-3.54 1-5.37 4.46-6.82 22.16-9.32 45-16.34 68.26-22.4a536.1 536.1 0 0 1 87.27-14.67 415.68 415.68 0 0 1 83.31.64c18.65 2.07 37.31 4.35 55.76 7.65a434.16 434.16 0 0 1 46.22 11c18.09 5.33 35.81 11.95 53.75 17.83a11.66 11.66 0 0 0 6.77.1c15.57-5.17 30.91-11.12 46.62-15.8a426.86 426.86 0 0 1 46.1-11.45c22.88-4.13 45.92-8 69-10 27.26-2.38 54.71-2.59 82 .53 11.86 1.35 23.79 2.27 35.54 4.27 14.9 2.52 29.85 5.22 44.42 9.15 20.6 5.54 40.91 12.2 61.29 18.57 5 1.55 9.72 3.84 14.61 5.69 2.94 1.12 4.18 2.92 4.07 6.25-.35 10.77-.27 21.55-.55 32.33-.1 3.49.83 5.5 4.4 6.89 10.7 4.14 21.13 9 31.85 13.07 3.91 1.49 4.77 3.57 4.77 7.42q-.09 272.23 0 544.46 0 65.33 0 130.65zm-468.51-94.9v-587.1c0-1-.08-2 0-3.05.22-2.8-1-4.12-3.77-4.91-20.36-5.89-40.49-12.73-61.07-17.7a614.82 614.82 0 0 0 -61.69-11.61c-18.42-2.5-37.1-3.37-55.71-4.14-37.13-1.54-73.94 2.17-110.26 9.61-22.17 4.54-43.92 11.14-65.93 16.55-3.87.95-5.16 2.54-5.16 6.48q.14 294.95.09 589.89c0 1.51.2 3 .35 5.13 5.06-1.55 9.44-3 13.88-4.22 20.32-5.55 40.48-11.89 61.05-16.28 20.73-4.42 41.82-7.46 62.88-10a314.18 314.18 0 0 1 42.73-1.95 497.24 497.24 0 0 1 105.06 13.28c20.23 4.73 40.29 10.16 60.42 15.33 5.43 1.4 10.82 2.96 17.13 4.69zm405.52 0v-594.08c0-1.45.33-3-.12-4.33s-1.5-3-2.65-3.33c-9.7-3.06-19.36-6.35-29.26-8.64-17.69-4.11-35.42-8.33-53.35-11.1-20.11-3.1-40.41-5.85-60.71-6.55a535.54 535.54 0 0 0 -68.45 1.82 561.08 561.08 0 0 0 -70.63 11.06c-23.18 5.22-45.73 13.25-68.62 19.83-3.52 1-4.51 2.71-4.51 6.16q.09 290.79.07 581.59c0 1.5.26 3 .43 5 5.21-1.56 9.74-3.06 14.34-4.27 20.79-5.5 41.44-11.67 62.46-16.12 18.32-3.88 37-6.33 55.64-8.35a347.81 347.81 0 0 1 43.18-1.94 495.83 495.83 0 0 1 104.62 13.27c20.23 4.73 40.29 10.17 60.42 15.33 5.42 1.38 10.8 2.93 17.14 4.67z"/><path d="m450 692.75c.49-.46 2.13-1.29 2.52-2.51 1.37-4.28 2.24-8.72 3.44-13.06.86-3.13-.4-4.67-3.38-5.25-3.42-.68-6.81-1.59-10.26-2.1-17.4-2.6-34.75-5.83-52.25-7.43-22.3-2-44.71-3.47-67.1-3.83-30.92-.5-61.59 3.56-92.17 7.84-10.36 1.45-20.63 3.59-30.95 5.34-3.53.6-5.14 2.2-4.13 6s2 7.61 2.67 11.47c.56 3 1.78 4.19 5 3.45 4.67-1 9.43-1.76 14.18-2.43 19.58-2.77 39.11-6.5 58.79-7.93 24.36-1.77 48.86-2.27 73.3-2.11 25.5.16 50.75 3.9 75.87 8.29 7.78 1.3 15.47 2.68 24.47 4.26zm-255-297.28c1.34 5.75 2.56 10.4 3.47 15.1.6 3.12 1.81 3.82 5.07 3.16 11.4-2.29 22.83-4.64 34.37-6 21.09-2.57 42.22-5 63.41-6.54a395.61 395.61 0 0 1 76.78 1.75c23.65 2.93 47.14 7.25 70.73 10.77a4.44 4.44 0 0 0 3.59-2.3c1.43-4.26 2.35-8.69 3.45-13.06.68-2.73.54-4.63-3.08-5.18-25-3.79-49.9-8.65-75-11.43a431.15 431.15 0 0 0 -87.25-.82c-14.05 1.29-28.16 2.27-42.13 4.18-16.71 2.29-33.31 5.4-49.93 8.28-1.3.19-2.41 1.43-3.48 2.09zm261.41 57.59c-.66-.62-1.44-1.92-2.49-2.21a117.8 117.8 0 0 0 -13.18-3c-17.54-2.64-35-5.81-52.69-7.46-20.84-1.94-41.8-3.08-62.73-3.55-31.09-.69-61.89 3.33-92.62 7.56-11.37 1.56-22.61 4-33.93 6-2.89.5-4 1.86-3.2 4.79 1.16 4.5 2.19 9 3.18 13.58.48 2.19 1.58 2.79 3.76 2.27a105.32 105.32 0 0 1 10.7-2.1c25.1-3.26 50.14-7.06 75.32-9.49 41.67-4 83.19-1.26 124.49 5.1 11.78 1.82 23.47 4.2 35.23 6.14 1.26.21 3.69-.46 3.93-1.23 1.63-5.12 2.82-10.39 4.26-16.4zm-128 37.55-.12 1.36h-3.5c-28.6.19-57 3.24-85.3 6.83-13.56 1.71-27 4.55-40.45 6.82-3.13.53-4.18 2.2-3.46 5.23.88 3.68 1.89 7.34 2.41 11.07.63 4.5 3 5 6.95 4.3 15.19-2.59 30.41-5.06 45.66-7.27 33.53-4.84 67.24-7.37 101.07-5 22 1.53 44 4.29 66 6.94 9.65 1.17 19.18 3.38 28.74 5.24 3.63.71 6.17.63 6.66-4.1.35-3.43 1.71-6.75 2.6-10.12 1.19-4.58.53-5.62-4.27-6.43-15.2-2.56-30.33-5.72-45.62-7.47-25.69-2.96-51.52-5.01-77.31-7.4zm-6.41 58.56c-9.26.47-25.35.41-41.21 2.28-27.28 3.22-54.4 7.7-81.61 11.52-3.41.48-4.13 2.15-3.47 5.06 1 4.25 2.14 8.46 2.87 12.75.54 3.22 2.24 3.47 4.94 3 14.9-2.51 29.76-5.42 44.76-7.23 19.77-2.4 39.62-4.35 59.5-5.7 26.5-1.8 53-.06 79.31 3 11.12 1.28 22.2 2.91 33.25 4.68 9.33 1.5 18.56 3.54 27.88 5.05 1.32.21 3.82-1 4.2-2.06 1.52-4.37 2.43-9 3.55-13.47.74-2.92 0-4.54-3.39-5.09-14.48-2.36-28.89-5.2-43.39-7.42-26.68-4.07-53.5-6.23-87.19-6.37zm6.4 166.88c-13.37.65-26.8.75-40.11 2.05-22 2.15-43.95 4.94-65.88 7.74-7.92 1-15.72 2.91-23.6 4.27-3 .53-3.8 2.12-3.12 4.9 1.07 4.38 2.15 8.76 3 13.17.55 2.71 1.91 3.12 4.38 2.49a83.21 83.21 0 0 1 10.27-2c25.24-3.24 50.44-7 75.76-9.46 41.24-4.05 82.32-1.24 123.18 5 11.93 1.82 23.8 4.05 35.65 6.33 3.25.63 4.5-.22 5-3.42a75.59 75.59 0 0 1 2.3-9.3c1.87-6.51 1.66-6.92-5-8.38-.57-.12-1.15-.19-1.73-.28-15.65-2.5-31.28-5.09-46.95-7.48a512.45 512.45 0 0 0 -73.18-5.63zm-.14-392.72-.13 1c-13.81.64-27.68.7-41.42 2.06-22 2.17-43.91 5.11-65.84 7.93-7.05.91-14 2.52-21 3.7-3.54.6-5.1 2.21-4.06 6 1.09 3.92 2 7.88 2.78 11.88.56 3 1.94 3.45 4.86 3 24.29-3.68 48.55-7.63 72.94-10.56a434 434 0 0 1 79.37-1.83c19.86 1.28 39.65 3.9 59.42 6.42 10.79 1.37 21.47 3.69 32.17 5.76 3.29.63 5.27.33 5.68-3.62a52.34 52.34 0 0 1 2.19-8.88c2-6.83 1.73-7.35-5.31-8.52-15.48-2.57-30.91-5.71-46.48-7.45-25.06-2.79-50.15-4.64-75.2-6.89zm-128.84-20.9c2.63-.56 4.58-1.11 6.56-1.37 28.4-3.74 56.74-8.09 85.23-11 39.91-4.08 79.69-1.08 119.25 4.87 12.79 1.93 25.48 4.55 38.25 6.62 1.15.18 3.39-1.07 3.74-2.12 1.47-4.4 2.4-9 3.56-13.48.72-2.78 0-4.23-3.12-4.79-11.31-2-22.5-4.79-33.86-6.35-17.43-2.38-34.95-4.26-52.48-5.88a427.68 427.68 0 0 0 -75.91-.06q-27.83 2.38-55.55 5.95c-12.39 1.62-24.64 4.27-36.91 6.65-1.06.21-2.72 2.06-2.58 2.88 1 5.96 2.4 11.85 3.79 18.08zm130.78 300.22c-24.9 2-47.71 3.36-70.4 5.91-20.35 2.29-40.55 5.92-60.82 9-2.9.43-4 2-3.34 4.88.83 3.68 1.83 7.35 2.33 11.08.61 4.58 2.9 5.34 7.13 4.61 15.18-2.62 30.39-5.08 45.63-7.29 33.35-4.83 66.89-7.43 100.55-5.07 22.32 1.57 44.57 4.34 66.8 7 9.64 1.16 19.16 3.39 28.71 5.27 3.59.71 5.78.26 6.27-4.06.39-3.43 1.7-6.75 2.6-10.12 1.24-4.65.6-5.72-4.09-6.52-15.19-2.56-30.3-5.76-45.58-7.5-25.86-2.96-51.81-4.97-75.79-7.19z"/><path d="m763.24 333.22c-25.47 2.13-49 3.57-72.43 6.21-19.77 2.23-39.4 5.83-59.09 8.84-2.46.37-3.54 1.61-2.93 4.25 1 4.25 1.81 8.53 2.64 12.81.62 3.2 2.3 4.26 5.59 3.61 7.27-1.45 14.56-2.89 21.9-3.87 21.34-2.82 42.66-6 64.09-7.95a419 419 0 0 1 76.37-.06c17.37 1.57 34.69 3.91 52 6.33 9.92 1.38 19.74 3.55 29.59 5.46 3 .58 4.65-.29 5.22-3.48a80.65 80.65 0 0 1 2.76-11.43c1.26-3.79.15-5.29-3.68-5.9-14.92-2.41-29.74-5.69-44.73-7.4-26.32-3.01-52.72-5.1-77.3-7.42zm4.9 55.34c-21.24 1.09-35.68 1.28-50 2.7-21.42 2.11-42.76 5-64.11 7.75-7 .91-14 2.45-21 3.7-3.3.59-5.27 1.82-4 5.83 1.17 3.73 1.66 7.66 2.49 11.49.6 2.75 1.73 4.32 5.13 3.52 4.94-1.16 10-1.85 15-2.56 19.58-2.76 39.1-6.52 58.79-7.89 25.08-1.75 50.32-2.59 75.44-1.85 20.88.61 41.7 3.8 62.48 6.37 10.95 1.35 21.78 3.71 32.62 5.8 3.44.66 4.79-.56 5.29-3.83s1.34-6.24 2.11-9.34c1.64-6.6 1.57-6.8-5.31-7.93-15.63-2.57-31.2-5.71-46.92-7.48-24.87-2.79-49.82-4.64-68.01-6.28zm-4.83 56.66c-26.71 2.23-52 3.85-77.14 6.6-17.89 2-35.62 5.47-53.43 8.25-3.06.48-4.84 1.56-3.84 5.19a90.9 90.9 0 0 1 2.24 11.1c.59 4.14 2.67 5.05 6.64 4.43 20.1-3.14 40.22-6.2 60.37-9 28.63-4 57.43-5.53 86.25-3.45 22.47 1.63 44.85 4.44 67.22 7.16 9.51 1.15 18.9 3.27 28.3 5.18 4 .81 6-.15 6.47-4.46a68.32 68.32 0 0 1 2.46-10.16c1.22-4.45.8-5.22-4-6-15.18-2.56-30.3-5.73-45.58-7.49-25.66-2.99-51.47-5.04-75.96-7.35zm126.28 73c-.52-.46-1.41-1.93-2.55-2.16-12.4-2.48-24.78-5.32-37.3-7-18.89-2.48-37.86-4.91-56.87-5.83a569.17 569.17 0 0 0 -62 0c-23.64 1.44-47.18 4.68-70.72 7.54-9.62 1.23-19.15 3.29-28.72 5.23-1.1.22-2.74 2.33-2.6 3.35.67 4.89 1.88 9.7 2.9 14.54.53 2.55 2.06 3.05 4.51 2.63 14.62-2.49 29.2-5.38 43.91-7.16 20.51-2.48 41.08-4.91 61.7-5.92 46.95-2.31 93.28 3.35 139.19 12.87 2.27.47 4.13.53 4.79-2.16 1.17-4.94 2.34-9.89 3.76-15.95zm-127.76 149.87-.08-1.06c-22.75 1.97-45.59 3.33-68.28 5.97-20.5 2.33-40.86 6-61.29 9-2.65.39-4 1.43-3.32 4.33 1 4.54 1.92 9.1 2.87 13.66.51 2.45 1.94 3.41 4.43 2.82s4.81-1.2 7.25-1.55c17.71-2.56 35.41-5.16 53.14-7.56a464.28 464.28 0 0 1 79.31-4.18 606 606 0 0 1 104.71 13c3.12.66 5 .16 5.61-3.38a107.26 107.26 0 0 1 2.92-11.85c1-3.27.18-4.82-3.35-5.39-14.78-2.42-29.49-5.24-44.29-7.5a552.69 552.69 0 0 0 -79.63-6.31zm.09-54.66c-10.61.5-21.26.65-31.84 1.57-19.86 1.71-39.72 3.51-59.5 6-13.11 1.62-26.09 4.39-39.09 6.88-1.09.21-2.73 2.31-2.59 3.32.68 4.89 1.89 9.7 2.9 14.53.52 2.52 2 3.14 4.45 2.71 14.47-2.49 28.91-5.34 43.47-7.12 20.21-2.47 40.49-4.89 60.81-5.92 47.38-2.41 94.16 3.1 140.49 12.82 2.87.61 4.4 0 5.05-3 .94-4.4 2.07-8.77 3.2-13.13.7-2.72-.17-4-3-4.44-14.19-2.4-28.3-5.26-42.53-7.4a579.79 579.79 0 0 0 -81.82-6.82zm121.72 147.38c.57-.75 1.9-1.84 2.31-3.19 1.3-4.31 2.18-8.75 3.37-13.09.7-2.56-.24-3.91-2.68-4.45-3.27-.72-6.51-1.57-9.82-2.07-17.26-2.6-34.53-5.11-51.8-7.63-23.55-3.44-47.26-4.28-71-4-30.64.33-61 4-91.29 8.26-10.07 1.43-20.05 3.5-30.09 5.2-3.22.55-4.57 2-3.63 5.39s1.47 6.82 2.13 10.24c1 5.29 1.7 5.77 6.94 5 20.13-3 40.25-6.13 60.41-8.94 29.38-4.09 58.94-5.64 88.49-3.25 24.62 2 49.13 5.51 73.67 8.56 7.35.86 14.57 2.48 22.99 3.97zm-255.38-185.67c1.39 6.15 2.56 11.4 3.77 16.64.59 2.54 2.23 2.33 4.37 1.93 11.44-2.14 22.85-4.56 34.38-6 20.36-2.53 40.75-4.93 61.2-6.45a413.76 413.76 0 0 1 79.39 1.57c23.52 2.79 46.87 7 70.28 10.77 2.68.42 3.79-.57 4.35-2.9 1.1-4.52 2.19-9 3.34-13.54.59-2.3 0-3.44-2.55-3.9-11.73-2.13-23.35-5-35.15-6.56-19.32-2.58-38.7-4.89-58.13-6.36a486.39 486.39 0 0 0 -84.64 1.49c-17.07 1.7-34.07 4.19-51.07 6.62-8.77 1.26-17.46 3.12-26.16 4.85-1.24.24-2.32 1.25-3.38 1.84zm255.06-263.45c.58-.71 2.16-1.85 2.65-3.36 1.17-3.58 1.72-7.35 2.7-11 1.38-5.15 1.21-5.84-4-6.67-22.86-3.61-45.67-7.66-68.57-10.46a398.27 398.27 0 0 0 -80.65-2c-27.81 2.22-55.51 5.9-83.24 9.12-6.34.74-12.59 2.26-18.89 3.35-3.49.6-5.63 1.79-4.32 6a96.51 96.51 0 0 1 2.35 11.08c.62 3.41 2.29 4.45 5.82 3.74 9.54-1.91 19.12-3.75 28.76-5.11 30.84-4.37 61.77-7.91 93-8.09 30.2-.17 60.16 2.7 90 7.36 11 1.74 21.99 3.86 34.39 6.04z"/><path d="m450 692.75c-9-1.58-16.7-3-24.43-4.31-25.12-4.39-50.37-8.13-75.87-8.29-24.44-.16-48.94.34-73.3 2.11-19.68 1.43-39.21 5.16-58.79 7.93-4.75.67-9.51 1.38-14.18 2.43-3.26.74-4.48-.45-5-3.45-.72-3.86-1.64-7.68-2.67-11.47s.6-5.35 4.13-6c10.32-1.75 20.59-3.89 30.95-5.34 30.58-4.28 61.25-8.34 92.17-7.84 22.39.36 44.8 1.79 67.1 3.83 17.5 1.6 34.85 4.83 52.25 7.43 3.45.51 6.84 1.42 10.26 2.1 3 .58 4.24 2.12 3.38 5.25-1.2 4.34-2.07 8.78-3.44 13.06-.42 1.27-2.06 2.1-2.56 2.56z"/><path d="m195 395.47c1-.66 2.15-1.9 3.45-2.13 16.62-2.88 33.22-6 49.93-8.28 14-1.91 28.08-2.89 42.13-4.18a431.15 431.15 0 0 1 87.25.82c25.13 2.78 50 7.64 75 11.43 3.62.55 3.76 2.45 3.08 5.18-1.1 4.37-2 8.8-3.45 13.06a4.44 4.44 0 0 1 -3.59 2.3c-23.59-3.52-47.08-7.84-70.73-10.77a395.61 395.61 0 0 0 -76.78-1.75c-21.19 1.5-42.32 4-63.41 6.54-11.54 1.4-23 3.75-34.37 6-3.26.66-4.47 0-5.07-3.16-.85-4.66-2.07-9.31-3.44-15.06z"/><path d="m456.44 453.06c-1.49 6-2.63 11.28-4.23 16.4-.24.77-2.67 1.44-3.93 1.23-11.76-1.94-23.45-4.32-35.23-6.14-41.3-6.36-82.82-9.12-124.49-5.1-25.18 2.43-50.22 6.23-75.32 9.49a105.32 105.32 0 0 0 -10.7 2.1c-2.18.52-3.28-.08-3.76-2.27-1-4.54-2-9.08-3.18-13.58-.76-2.93.31-4.29 3.2-4.79 11.32-2 22.56-4.43 33.93-6 30.73-4.23 61.53-8.25 92.62-7.56 20.93.47 41.89 1.61 62.73 3.55 17.64 1.65 35.15 4.82 52.69 7.46a117.8 117.8 0 0 1 13.18 3c1.05.29 1.83 1.59 2.49 2.21z"/><path d="m328.47 490.61c25.79 2.41 51.62 4.44 77.34 7.38 15.29 1.75 30.42 4.91 45.62 7.47 4.8.81 5.46 1.85 4.27 6.43-.89 3.37-2.25 6.69-2.6 10.12-.49 4.73-3 4.81-6.66 4.1-9.56-1.86-19.09-4.07-28.74-5.24-21.95-2.65-43.93-5.41-66-6.94-33.83-2.35-67.54.18-101.07 5-15.25 2.21-30.47 4.68-45.66 7.27-4 .68-6.32.2-6.95-4.3-.52-3.73-1.53-7.39-2.41-11.07-.72-3 .33-4.7 3.46-5.23 13.48-2.27 26.89-5.11 40.45-6.82 28.31-3.59 56.7-6.64 85.3-6.83h3.5z"/><path d="m322 549.17c33.72.14 60.54 2.3 87.19 6.37 14.5 2.22 28.91 5.06 43.39 7.42 3.38.55 4.13 2.17 3.39 5.09-1.12 4.51-2 9.1-3.55 13.47-.38 1.09-2.88 2.27-4.2 2.06-9.32-1.51-18.55-3.55-27.88-5.05-11.05-1.77-22.13-3.4-33.25-4.68-26.35-3-52.81-4.78-79.31-3-19.88 1.35-39.73 3.3-59.5 5.7-15 1.81-29.86 4.72-44.76 7.23-2.7.45-4.4.2-4.94-3-.73-4.29-1.91-8.5-2.87-12.75-.66-2.91.06-4.58 3.47-5.06 27.21-3.82 54.33-8.3 81.61-11.52 15.83-1.87 31.92-1.81 41.21-2.28z"/><path d="m328.37 716.05a512.45 512.45 0 0 1 73.13 5.58c15.67 2.39 31.3 5 46.95 7.48.58.09 1.16.16 1.73.28 6.69 1.46 6.9 1.87 5 8.38a75.59 75.59 0 0 0 -2.3 9.3c-.48 3.2-1.73 4-5 3.42-11.85-2.28-23.72-4.51-35.65-6.33-40.86-6.21-81.94-9-123.18-5-25.32 2.5-50.52 6.22-75.76 9.46a83.21 83.21 0 0 0 -10.27 2c-2.47.63-3.83.22-4.38-2.49-.88-4.41-2-8.79-3-13.17-.68-2.78.08-4.37 3.12-4.9 7.88-1.36 15.68-3.25 23.6-4.27 21.93-2.8 43.88-5.59 65.88-7.74 13.33-1.25 26.76-1.35 40.13-2z"/><path d="m328.23 323.33c25 2.25 50.14 4.1 75.13 6.9 15.57 1.74 31 4.88 46.48 7.45 7 1.17 7.28 1.69 5.31 8.52a52.34 52.34 0 0 0 -2.19 8.88c-.41 3.95-2.39 4.25-5.68 3.62-10.7-2.07-21.38-4.39-32.17-5.76-19.77-2.52-39.56-5.14-59.42-6.42a434 434 0 0 0 -79.37 1.83c-24.39 2.93-48.65 6.88-72.94 10.56-2.92.44-4.3 0-4.86-3-.74-4-1.69-8-2.78-11.88-1-3.75.52-5.36 4.06-6 7-1.18 14-2.79 21-3.7 21.93-2.82 43.85-5.76 65.84-7.93 13.74-1.36 27.61-1.42 41.42-2.06z"/><path d="m199.39 302.43c-1.37-6.23-2.79-12.12-3.82-18.08-.14-.82 1.52-2.67 2.58-2.88 12.27-2.38 24.52-5 36.91-6.65q27.69-3.61 55.55-5.95a427.68 427.68 0 0 1 75.91.06c17.53 1.62 35.05 3.5 52.48 5.88 11.36 1.56 22.55 4.34 33.86 6.35 3.13.56 3.84 2 3.12 4.79-1.16 4.5-2.09 9.08-3.56 13.48-.35 1.05-2.59 2.3-3.74 2.12-12.77-2.07-25.46-4.69-38.25-6.62-39.56-5.95-79.34-8.95-119.25-4.87-28.49 2.91-56.83 7.26-85.23 11-1.95.26-3.95.81-6.56 1.37z"/><path d="m330.2 602.65c24 2.22 49.93 4.23 75.79 7.17 15.28 1.74 30.39 4.94 45.58 7.5 4.69.8 5.33 1.87 4.09 6.52-.9 3.37-2.21 6.69-2.6 10.12-.49 4.32-2.68 4.77-6.27 4.06-9.55-1.88-19.07-4.11-28.71-5.27-22.23-2.69-44.48-5.46-66.8-7-33.66-2.36-67.2.24-100.55 5.07-15.24 2.21-30.45 4.67-45.63 7.29-4.23.73-6.52 0-7.13-4.61-.5-3.73-1.5-7.4-2.33-11.08-.66-2.88.44-4.45 3.34-4.88 20.27-3 40.47-6.66 60.82-9 22.69-2.54 45.5-3.85 70.4-5.89z"/><path d="m763.24 333.22c24.58 2.32 51 4.41 77.28 7.42 15 1.71 29.81 5 44.73 7.4 3.83.61 4.94 2.11 3.68 5.9a80.65 80.65 0 0 0 -2.76 11.43c-.57 3.19-2.21 4.06-5.22 3.48-9.85-1.91-19.67-4.08-29.59-5.46-17.29-2.42-34.61-4.76-52-6.33a419 419 0 0 0 -76.37.06c-21.43 2-42.75 5.13-64.09 7.95-7.34 1-14.63 2.42-21.9 3.87-3.29.65-5-.41-5.59-3.61-.83-4.28-1.66-8.56-2.64-12.81-.61-2.64.47-3.88 2.93-4.25 19.69-3 39.32-6.61 59.09-8.84 23.44-2.64 46.98-4.08 72.45-6.21z"/><path d="m768.14 388.56c18.19 1.64 43.14 3.49 68 6.28 15.72 1.77 31.29 4.91 46.92 7.48 6.88 1.13 7 1.33 5.31 7.93-.77 3.1-1.63 6.19-2.11 9.34s-1.85 4.49-5.29 3.83c-10.84-2.09-21.67-4.45-32.62-5.8-20.78-2.57-41.6-5.76-62.48-6.37-25.12-.74-50.36.1-75.44 1.85-19.69 1.37-39.21 5.13-58.79 7.89-5 .71-10.1 1.4-15 2.56-3.4.8-4.53-.77-5.13-3.52-.83-3.83-1.32-7.76-2.49-11.49-1.25-4 .72-5.24 4-5.83 7-1.25 14-2.79 21-3.7 21.35-2.76 42.69-5.64 64.11-7.75 14.33-1.42 28.77-1.61 50.01-2.7z"/><path d="m763.31 445.22c24.49 2.31 50.3 4.36 76 7.31 15.28 1.76 30.4 4.93 45.58 7.49 4.75.81 5.17 1.58 4 6a68.32 68.32 0 0 0 -2.46 10.16c-.5 4.31-2.48 5.27-6.47 4.46-9.4-1.91-18.79-4-28.3-5.18-22.37-2.72-44.75-5.53-67.22-7.16-28.82-2.08-57.62-.53-86.25 3.45-20.15 2.81-40.27 5.87-60.37 9-4 .62-6-.29-6.64-4.43a90.9 90.9 0 0 0 -2.24-11.1c-1-3.63.78-4.71 3.84-5.19 17.81-2.78 35.54-6.29 53.43-8.25 25.12-2.71 50.39-4.33 77.1-6.56z"/><path d="m889.59 518.2c-1.42 6.06-2.56 11-3.76 16-.66 2.69-2.52 2.63-4.79 2.16-45.91-9.52-92.24-15.18-139.19-12.87-20.62 1-41.19 3.44-61.7 5.92-14.71 1.78-29.29 4.67-43.91 7.16-2.45.42-4-.08-4.51-2.63-1-4.84-2.23-9.65-2.9-14.54-.14-1 1.5-3.13 2.6-3.35 9.55-2 19.1-4.05 28.76-5.22 23.54-2.86 47.08-6.1 70.72-7.54a569.17 569.17 0 0 1 62 0c19 .92 38 3.35 56.87 5.83 12.52 1.64 24.9 4.48 37.3 7 1.1.15 1.99 1.62 2.51 2.08z"/><path d="m761.83 668.09a552.69 552.69 0 0 1 79.63 6.3c14.8 2.26 29.51 5.08 44.29 7.5 3.53.57 4.34 2.12 3.35 5.39a107.26 107.26 0 0 0 -2.92 11.85c-.63 3.54-2.49 4-5.61 3.38a606 606 0 0 0 -104.71-13 464.28 464.28 0 0 0 -79.31 4.18c-17.73 2.4-35.43 5-53.14 7.56-2.44.35-4.85 1-7.25 1.55s-3.92-.37-4.43-2.82c-1-4.56-1.84-9.12-2.87-13.66-.66-2.9.67-3.94 3.32-4.33 20.43-3 40.79-6.67 61.29-9 22.69-2.59 45.51-4 68.28-5.92z"/><path d="m761.92 613.43a579.79 579.79 0 0 1 81.78 6.81c14.23 2.14 28.34 5 42.53 7.4 2.87.49 3.74 1.72 3 4.44-1.13 4.36-2.26 8.73-3.2 13.13-.65 3-2.18 3.59-5.05 3-46.33-9.72-93.11-15.23-140.49-12.82-20.32 1-40.6 3.45-60.81 5.92-14.56 1.78-29 4.63-43.47 7.12-2.5.43-3.93-.19-4.45-2.71-1-4.83-2.22-9.64-2.9-14.53-.14-1 1.5-3.11 2.59-3.32 13-2.49 26-5.26 39.09-6.88 19.78-2.46 39.64-4.26 59.5-6 10.62-.91 21.27-1.06 31.88-1.56z"/><path d="m883.64 760.81c-8.42-1.49-15.68-3.11-23-4-24.54-3-49-6.57-73.67-8.56-29.55-2.39-59.11-.84-88.49 3.25-20.16 2.81-40.28 5.94-60.41 8.94-5.24.78-5.92.3-6.94-5-.66-3.42-1.21-6.89-2.13-10.24s.41-4.84 3.63-5.39c10-1.7 20-3.77 30.09-5.2 30.29-4.29 60.65-7.93 91.29-8.26 23.77-.24 47.48.6 71 4 17.27 2.52 34.54 5 51.8 7.63 3.31.5 6.55 1.35 9.82 2.07 2.44.54 3.38 1.89 2.68 4.45-1.19 4.34-2.07 8.78-3.37 13.09-.4 1.41-1.73 2.47-2.3 3.22z"/><path d="m628.26 575.14c1.06-.59 2.14-1.6 3.38-1.84 8.7-1.73 17.39-3.59 26.16-4.85 17-2.43 34-4.92 51.07-6.62a486.39 486.39 0 0 1 84.64-1.49c19.43 1.47 38.81 3.78 58.13 6.36 11.8 1.57 23.42 4.43 35.15 6.56 2.53.46 3.14 1.6 2.55 3.9-1.15 4.5-2.24 9-3.34 13.54-.56 2.33-1.67 3.32-4.35 2.9-23.41-3.73-46.76-8-70.28-10.77a413.76 413.76 0 0 0 -79.37-1.57c-20.45 1.52-40.84 3.92-61.2 6.45-11.53 1.44-22.94 3.86-34.38 6-2.14.4-3.78.61-4.37-1.93-1.23-5.24-2.4-10.49-3.79-16.64z"/><path d="m883.32 311.69c-12.4-2.18-23.39-4.3-34.44-6-29.8-4.66-59.76-7.53-90-7.36-31.22.18-62.15 3.72-93 8.09-9.64 1.36-19.22 3.2-28.76 5.11-3.53.71-5.2-.33-5.82-3.74a96.51 96.51 0 0 0 -2.3-11.11c-1.31-4.24.83-5.43 4.32-6 6.3-1.09 12.55-2.61 18.89-3.35 27.73-3.22 55.43-6.9 83.24-9.12a398.27 398.27 0 0 1 80.65 2c22.93 2.84 45.71 6.85 68.53 10.47 5.25.83 5.42 1.52 4 6.67-1 3.64-1.53 7.41-2.7 11-.45 1.49-2.03 2.65-2.61 3.34z"/></g></svg>